PathFileType	4	(X/Y/Z)	 staticP072.trc
DataRate	CameraRate	NumFrames	NumMarkers	Units	OrigDataRate	OrigDataStartFrame	OrigNumFrames
100	100	7	53	M	100	1	100
Frame#	Time	RM1D			RM5D			RM2B			LM1D			LM5D			LM2B			RCAL			LCAL			RLMAL			LLMAL			RMMAL			LMMAL			RSTL			LSTL			RFLE			RFME			LFME			LFLE			RHFIB			LHFIB			RTTUB			LTTUB			RSSH			LSSH			RTL			LTL			RTAP			RTAD			LTAP			LTAD			RTPP			RTPD			LTPP			LTPD			RPSIS			LPSIS			RASIS			LASIS			T10			T2			IJ			SA			RACR			LACR			RHLE			LHLE			RUSP			LUSP			RCB			LCB			IN			LHME			RHME			
		X1	Y1	Z1	X2	Y2	Z2	X3	Y3	Z3	X4	Y4	Z4	X5	Y5	Z5	X6	Y6	Z6	X7	Y7	Z7	X8	Y8	Z8	X9	Y9	Z9	X10	Y10	Z10	X11	Y11	Z11	X12	Y12	Z12	X13	Y13	Z13	X14	Y14	Z14	X15	Y15	Z15	X16	Y16	Z16	X17	Y17	Z17	X18	Y18	Z18	X19	Y19	Z19	X20	Y20	Z20	X21	Y21	Z21	X22	Y22	Z22	X23	Y23	Z23	X24	Y24	Z24	X25	Y25	Z25	X26	Y26	Z26	X27	Y27	Z27	X28	Y28	Z28	X29	Y29	Z29	X30	Y30	Z30	X31	Y31	Z31	X32	Y32	Z32	X33	Y33	Z33	X34	Y34	Z34	X35	Y35	Z35	X36	Y36	Z36	X37	Y37	Z37	X38	Y38	Z38	X39	Y39	Z39	X40	Y40	Z40	X41	Y41	Z41	X42	Y42	Z42	X43	Y43	Z43	X44	Y44	Z44	X45	Y45	Z45	X46	Y46	Z46	X47	Y47	Z47	X48	Y48	Z48	X49	Y49	Z49	X50	Y50	Z50	X51	Y51	Z51	X52	Y52	Z52	X53	Y53	Z53	
1	0.0100	-0.095891	0.045034	-0.188798	-0.146836	0.027970	-0.090146	-0.145399	0.062770	-0.142815	-0.090563	0.046074	-0.329047	-0.136740	0.031362	-0.420424	-0.143939	0.068246	-0.356745	-0.310256	0.051889	-0.167524	-0.308236	0.049366	-0.340264	-0.252640	0.083654	-0.124657	-0.250130	0.077408	-0.383141	-0.238463	0.101052	-0.211550	-0.238191	0.097092	-0.296097	-0.260006	0.040257	-0.202024	-0.252707	0.040806	-0.305907	-0.210534	0.499645	-0.114293	-0.227706	0.490487	-0.222091	-0.211875	0.481377	-0.280370	-0.211430	0.492347	-0.387384	-0.236571	0.442330	-0.101905	-0.242824	0.432106	-0.399113	-0.190149	0.424240	-0.157842	-0.181658	0.424335	-0.351694	-0.199012	0.335071	-0.162331	-0.197191	0.217909	-0.343265	-0.179808	0.668281	-0.082170	-0.187718	0.673686	-0.427151	-0.103055	0.705146	-0.171581	-0.126228	0.624361	-0.176837	-0.095663	0.723664	-0.347733	-0.116571	0.627474	-0.337286	-0.282001	0.726185	-0.147272	-0.291992	0.629535	-0.153579	-0.281436	0.686197	-0.363496	-0.282456	0.610504	-0.364467	-0.281436	1.041445	-0.205665	-0.280460	1.039507	-0.305084	-0.106404	1.027830	-0.143816	-0.104187	1.018745	-0.375005	-0.298450	1.213912	-0.268035	-0.296955	1.451018	-0.268454	-0.133917	1.425248	-0.257944	-0.118455	1.372040	-0.260368	-0.246047	1.455572	-0.059948	-0.231786	1.464297	-0.469088	-0.268224	1.096600	-0.043203	-0.244141	1.104292	-0.494360	-0.203091	0.862395	0.053387	-0.166083	0.858087	-0.548843	-0.097061	1.636693	-0.202918	-0.105014	1.628550	-0.331847	-0.251944	1.533395	-0.271764	-0.225374	1.104922	-0.416971	-0.227775	1.094781	-0.117402	
2	0.0200	-0.095897	0.045015	-0.188790	-0.146842	0.027961	-0.090171	-0.145450	0.062756	-0.142811	-0.090562	0.046067	-0.329040	-0.136762	0.031351	-0.420433	-0.143911	0.068273	-0.356747	-0.310244	0.051879	-0.167518	-0.308182	0.049330	-0.340216	-0.252660	0.083669	-0.124659	-0.250099	0.077386	-0.383127	-0.238470	0.101044	-0.211547	-0.238190	0.097087	-0.296084	-0.259982	0.040241	-0.202031	-0.252743	0.040800	-0.305927	-0.210534	0.499638	-0.114285	-0.227682	0.490456	-0.222066	-0.211857	0.481371	-0.280329	-0.211445	0.492351	-0.387342	-0.236605	0.442344	-0.101881	-0.242847	0.432109	-0.399076	-0.190170	0.424243	-0.157812	-0.181672	0.424357	-0.351648	-0.199035	0.335074	-0.162311	-0.197584	0.217988	-0.342937	-0.179886	0.668293	-0.082137	-0.187739	0.673685	-0.427112	-0.103087	0.705125	-0.171553	-0.126271	0.624359	-0.176826	-0.095715	0.723682	-0.347695	-0.116643	0.627430	-0.337232	-0.282042	0.726202	-0.147238	-0.292041	0.629533	-0.153555	-0.281443	0.686189	-0.363426	-0.282460	0.610513	-0.364395	-0.281471	1.041453	-0.205594	-0.280498	1.039518	-0.305033	-0.106401	1.027864	-0.143715	-0.104235	1.018727	-0.374950	-0.298500	1.213906	-0.267998	-0.297041	1.451010	-0.268445	-0.133958	1.425276	-0.257973	-0.118527	1.372057	-0.260391	-0.246108	1.455643	-0.059920	-0.231890	1.464283	-0.469093	-0.268191	1.096616	-0.043150	-0.244208	1.104249	-0.494297	-0.203033	0.862454	0.053468	-0.166096	0.858056	-0.548784	-0.097154	1.636770	-0.202998	-0.105104	1.628575	-0.331931	-0.252025	1.533393	-0.271768	-0.225447	1.104925	-0.416921	-0.227741	1.094807	-0.117329	
3	0.0300	-0.095887	0.045028	-0.188790	-0.146797	0.027966	-0.090159	-0.145446	0.062757	-0.142826	-0.090564	0.046060	-0.329053	-0.136759	0.031373	-0.420416	-0.143911	0.068260	-0.356744	-0.310269	0.051904	-0.167531	-0.308169	0.049317	-0.340223	-0.252633	0.083626	-0.124674	-0.250108	0.077404	-0.383123	-0.238483	0.101051	-0.211559	-0.238207	0.097083	-0.296060	-0.260015	0.040255	-0.202026	-0.252710	0.040828	-0.305900	-0.210592	0.499634	-0.114263	-0.227717	0.490496	-0.222042	-0.211849	0.481378	-0.280309	-0.211436	0.492358	-0.387305	-0.236609	0.442325	-0.101879	-0.242832	0.432125	-0.399037	-0.190186	0.424252	-0.157790	-0.181663	0.424322	-0.351628	-0.199040	0.335089	-0.162308	-0.197817	0.217839	-0.342978	-0.179911	0.668291	-0.082120	-0.187767	0.673692	-0.427068	-0.103118	0.705139	-0.171519	-0.126307	0.624375	-0.176802	-0.095702	0.723702	-0.347644	-0.116682	0.627455	-0.337204	-0.282070	0.726225	-0.147219	-0.292086	0.629541	-0.153519	-0.281459	0.686190	-0.363364	-0.282461	0.610527	-0.364321	-0.281501	1.041461	-0.205536	-0.280523	1.039529	-0.304960	-0.106468	1.027875	-0.143697	-0.104245	1.018744	-0.374885	-0.298547	1.213905	-0.267966	-0.297118	1.451009	-0.268450	-0.134056	1.425321	-0.257968	-0.118564	1.372060	-0.260376	-0.246209	1.455602	-0.060033	-0.231992	1.464264	-0.469094	-0.268167	1.096646	-0.043087	-0.244276	1.104236	-0.494254	-0.202938	0.862527	0.053572	-0.166103	0.858065	-0.548727	-0.097268	1.636822	-0.203045	-0.105215	1.628625	-0.331984	-0.252110	1.533392	-0.271786	-0.225487	1.104904	-0.416891	-0.227730	1.094827	-0.117271	
4	0.0400	-0.095868	0.045035	-0.188799	-0.146776	0.027950	-0.090173	-0.145421	0.062752	-0.142829	-0.090545	0.046082	-0.329038	-0.136740	0.031375	-0.420401	-0.145136	0.067535	-0.356936	-0.310222	0.051871	-0.167525	-0.308124	0.049318	-0.340228	-0.251905	0.083298	-0.124838	-0.249795	0.077840	-0.383158	-0.238993	0.101232	-0.211970	-0.238214	0.097048	-0.296001	-0.260013	0.040255	-0.202038	-0.252690	0.040806	-0.305881	-0.210568	0.499636	-0.114247	-0.227744	0.490508	-0.222029	-0.211842	0.481373	-0.280248	-0.211461	0.492367	-0.387259	-0.234865	0.442917	-0.101661	-0.242861	0.432144	-0.399000	-0.190210	0.424271	-0.157784	-0.181702	0.424328	-0.351586	-0.199067	0.335085	-0.162290	-0.197716	0.217978	-0.342845	-0.180025	0.667712	-0.081890	-0.187980	0.673484	-0.427266	-0.103186	0.705071	-0.171512	-0.126314	0.624397	-0.176774	-0.095975	0.723477	-0.347487	-0.116623	0.627527	-0.337159	-0.281623	0.726138	-0.147009	-0.292132	0.629538	-0.153500	-0.281417	0.686137	-0.363409	-0.282468	0.610545	-0.364235	-0.281517	1.041516	-0.205533	-0.280557	1.039552	-0.304897	-0.106463	1.027890	-0.143639	-0.104305	1.018734	-0.374839	-0.298592	1.213896	-0.267918	-0.297177	1.451055	-0.268474	-0.134135	1.425312	-0.257953	-0.118621	1.372103	-0.260367	-0.246172	1.455583	-0.059959	-0.232111	1.464235	-0.469088	-0.267807	1.096770	-0.042794	-0.244323	1.104202	-0.494210	-0.202831	0.862607	0.053710	-0.166111	0.858042	-0.548694	-0.097265	1.637158	-0.203256	-0.103136	1.629314	-0.332207	-0.252216	1.533387	-0.271786	-0.225531	1.104889	-0.416837	-0.227709	1.094862	-0.117192	
5	0.0500	-0.095918	0.045021	-0.188771	-0.146757	0.028050	-0.090091	-0.145596	0.062717	-0.142801	-0.090587	0.045985	-0.329059	-0.136781	0.031313	-0.420476	-0.144996	0.067438	-0.357026	-0.310229	0.051844	-0.167580	-0.308409	0.049629	-0.340355	-0.252088	0.083487	-0.125016	-0.250164	0.077645	-0.382932	-0.239040	0.101084	-0.211552	-0.238346	0.096991	-0.296117	-0.260087	0.040313	-0.202159	-0.252528	0.040698	-0.305532	-0.211312	0.499677	-0.114467	-0.227941	0.490382	-0.221877	-0.211904	0.481385	-0.280254	-0.211410	0.492353	-0.387271	-0.235104	0.442864	-0.101709	-0.243070	0.432052	-0.399082	-0.190672	0.424351	-0.157343	-0.181811	0.424323	-0.351527	-0.199094	0.335013	-0.162312	-0.199888	0.217254	-0.342481	-0.179904	0.667793	-0.082234	-0.187863	0.673463	-0.427270	-0.103300	0.704979	-0.171413	-0.126453	0.624332	-0.176678	-0.096071	0.723443	-0.347395	-0.116771	0.627509	-0.337096	-0.281929	0.726098	-0.146969	-0.292289	0.629505	-0.153530	-0.281305	0.686134	-0.363404	-0.282508	0.610558	-0.364221	-0.281454	1.041447	-0.205483	-0.280410	1.039538	-0.304833	-0.106535	1.027793	-0.143501	-0.104330	1.018661	-0.374784	-0.298475	1.213761	-0.267848	-0.296918	1.450673	-0.268398	-0.134248	1.425380	-0.257947	-0.118730	1.372025	-0.260320	-0.246146	1.455362	-0.059906	-0.231908	1.464150	-0.469053	-0.267897	1.096658	-0.042737	-0.243993	1.104154	-0.494179	-0.202684	0.862554	0.053672	-0.166885	0.858305	-0.548753	-0.097464	1.636685	-0.203047	-0.105758	1.628936	-0.331998	-0.252615	1.533097	-0.271783	-0.222913	1.104590	-0.417986	-0.226403	1.094814	-0.115637	
6	0.0600	-0.095936	0.045026	-0.188774	-0.146769	0.028051	-0.090092	-0.145603	0.062724	-0.142795	-0.090606	0.045984	-0.329048	-0.136795	0.031311	-0.420459	-0.145002	0.067420	-0.356988	-0.310222	0.051827	-0.167589	-0.308417	0.049657	-0.340315	-0.252078	0.083474	-0.125001	-0.250162	0.077625	-0.382917	-0.239025	0.101076	-0.211523	-0.238363	0.097006	-0.296077	-0.260097	0.040318	-0.202148	-0.252536	0.040692	-0.305581	-0.210422	0.499664	-0.114200	-0.227978	0.490376	-0.221803	-0.211903	0.481378	-0.280216	-0.211415	0.492348	-0.387247	-0.235195	0.442842	-0.101676	-0.243081	0.432046	-0.399035	-0.190736	0.424337	-0.157333	-0.181846	0.424295	-0.351502	-0.199108	0.335029	-0.162265	-0.199960	0.217225	-0.342449	-0.179961	0.667804	-0.082221	-0.187841	0.673468	-0.427240	-0.103333	0.704960	-0.171383	-0.126488	0.624324	-0.176646	-0.096136	0.723425	-0.347339	-0.116795	0.627485	-0.337067	-0.281941	0.726084	-0.146946	-0.292255	0.629471	-0.153456	-0.281417	0.685994	-0.363325	-0.282539	0.610495	-0.364135	-0.281597	1.041381	-0.205463	-0.280678	1.039484	-0.304830	-0.106650	1.027761	-0.143471	-0.104370	1.018661	-0.374747	-0.298717	1.213844	-0.267876	-0.297348	1.451060	-0.268514	-0.134317	1.425396	-0.257922	-0.118787	1.372043	-0.260314	-0.246263	1.455668	-0.059950	-0.232250	1.464086	-0.469099	-0.267885	1.096683	-0.042663	-0.244460	1.104071	-0.494240	-0.202509	0.862645	0.053819	-0.166143	0.857918	-0.548447	-0.097661	1.637183	-0.203128	-0.105905	1.628923	-0.332013	-0.252438	1.533451	-0.271675	-0.222824	1.104519	-0.417993	-0.226460	1.094816	-0.115620	
7	0.0700	-0.095936	0.045021	-0.188772	-0.146722	0.028044	-0.090079	-0.145628	0.062714	-0.142780	-0.090583	0.045977	-0.329052	-0.136789	0.031304	-0.420451	-0.144956	0.067418	-0.356984	-0.310191	0.051785	-0.167590	-0.308427	0.049644	-0.340321	-0.252090	0.083453	-0.124997	-0.250181	0.077631	-0.382895	-0.239046	0.101078	-0.211523	-0.238361	0.097002	-0.296062	-0.260111	0.040336	-0.202141	-0.252564	0.040666	-0.305607	-0.210390	0.499677	-0.114130	-0.228043	0.490369	-0.221806	-0.211964	0.481382	-0.280168	-0.211460	0.492343	-0.387217	-0.235263	0.442824	-0.101626	-0.243138	0.432075	-0.399019	-0.190752	0.424336	-0.157307	-0.181890	0.424293	-0.351460	-0.199147	0.335019	-0.162245	-0.199959	0.217223	-0.342435	-0.179941	0.667790	-0.082206	-0.187873	0.673455	-0.427225	-0.103360	0.704933	-0.171341	-0.126511	0.624301	-0.176622	-0.096125	0.723445	-0.347326	-0.116793	0.627498	-0.337007	-0.281945	0.726087	-0.146891	-0.292281	0.629456	-0.153437	-0.281432	0.685968	-0.363238	-0.282535	0.610476	-0.364071	-0.281631	1.041381	-0.205415	-0.280729	1.039463	-0.304784	-0.106598	1.027789	-0.143407	-0.104412	1.018634	-0.374709	-0.298783	1.213845	-0.267807	-0.297448	1.451071	-0.268497	-0.134366	1.425407	-0.257894	-0.118864	1.372052	-0.260303	-0.246301	1.455684	-0.059937	-0.232381	1.464056	-0.469090	-0.267825	1.096702	-0.042552	-0.244553	1.104059	-0.494219	-0.202319	0.862715	0.053973	-0.166094	0.857878	-0.548391	-0.095824	1.636740	-0.202515	-0.106007	1.628939	-0.332022	-0.252520	1.533477	-0.271659	-0.222869	1.104504	-0.417994	-0.226547	1.094812	-0.115605	
